<?xml version="1.0" standalone="no"?>
<!DOCTYPE svg PUBLIC "-//W3C//DTD SVG 20010904//EN"
 "http://www.w3.org/TR/2001/REC-SVG-20010904/DTD/svg10.dtd">
<svg version="1.0" xmlns="http://www.w3.org/2000/svg"
 width="700.000000pt" height="700.000000pt" viewBox="0 0 700.000000 700.000000"
 preserveAspectRatio="xMidYMid meet">
<metadata>
Created by potrace 1.11, written by Peter Selinger 2001-2013
</metadata>
<g transform="translate(0.000000,700.000000) scale(0.100000,-0.100000)"
fill="#000000" stroke="none">
<path d="M3280 6989 c-741 -44 -1462 -332 -2030 -810 -214 -180 -444 -429
-600 -649 -668 -943 -829 -2158 -428 -3250 62 -170 214 -479 308 -630 527
-839 1380 -1417 2345 -1590 218 -39 382 -52 625 -52 570 0 1086 121 1580 373
539 275 984 667 1319 1164 707 1049 792 2398 223 3531 -170 337 -354 594 -626
873 -613 626 -1411 987 -2301 1041 -187 11 -218 11 -415 -1z m235 -3148 l500
-835 3 654 c1 420 -1 656 -8 660 -5 3 -66 16 -135 29 l-125 23 0 154 0 154
520 0 520 0 0 -154 0 -153 -87 -17 c-49 -10 -109 -22 -135 -28 l-48 -10 0
-1069 0 -1069 -249 0 -248 0 -504 840 -504 840 -3 -657 c-1 -361 -1 -658 1
-659 2 -3 255 -54 265 -54 1 0 1 -69 0 -152 l-3 -153 -517 -3 -518 -2 0 155
c0 85 2 155 4 155 2 0 58 11 126 25 68 14 124 25 126 25 2 0 4 400 4 889 0
839 -1 890 -17 895 -10 3 -69 15 -130 27 l-113 22 0 154 0 153 387 -2 387 -3
501 -834z"/>
</g>
</svg>
